<svg width="383" height="189" viewBox="0 0 383 189" fill="none" xmlns="http://www.w3.org/2000/svg">
<path d="M9.12 153H1.4V151.44H4.36V124.56H1.52V123H6V151.44H9.12V153ZM25.4278 151C24.7078 151.72 23.8545 152.28 22.8678 152.68C21.9078 153.08 20.8811 153.28 19.7878 153.28C18.6678 153.28 17.6278 153.08 16.6678 152.68C15.7345 152.28 14.9211 151.72 14.2278 151C13.5078 150.307 12.9478 149.493 12.5478 148.56C12.1478 147.6 11.9478 146.573 11.9478 145.48C11.9478 144.413 12.1478 143.4 12.5478 142.44C12.9478 141.48 13.5078 140.64 14.2278 139.92C14.9211 139.227 15.7478 138.68 16.7078 138.28C17.6678 137.853 18.6945 137.64 19.7878 137.64C20.8811 137.64 21.9078 137.853 22.8678 138.28C23.8545 138.68 24.7078 139.227 25.4278 139.92C26.1211 140.64 26.6678 141.48 27.0678 142.44C27.4945 143.4 27.7078 144.413 27.7078 145.48C27.7078 146.573 27.4945 147.587 27.0678 148.52C26.6678 149.453 26.1211 150.28 25.4278 151ZM15.3878 149.84C15.9478 150.427 16.6011 150.88 17.3478 151.2C18.0945 151.52 18.8945 151.68 19.7478 151.68C20.6011 151.68 21.4011 151.52 22.1478 151.2C22.9211 150.88 23.5878 150.427 24.1478 149.84C24.7345 149.307 25.1878 148.667 25.5078 147.92C25.8278 147.173 25.9878 146.36 25.9878 145.48C25.9878 144.653 25.8278 143.867 25.5078 143.12C25.1878 142.347 24.7345 141.667 24.1478 141.08C23.5878 140.52 22.9211 140.08 22.1478 139.76C21.4011 139.44 20.6011 139.28 19.7478 139.28C18.8945 139.28 18.0945 139.44 17.3478 139.76C16.6011 140.08 15.9478 140.52 15.3878 141.08C14.8278 141.667 14.3878 142.333 14.0678 143.08C13.7478 143.827 13.5878 144.627 13.5878 145.48C13.5878 146.36 13.7478 147.173 14.0678 147.92C14.3878 148.667 14.8278 149.307 15.3878 149.84ZM32.5016 160.68L33.6616 159.36C34.2216 159.947 34.9416 160.413 35.8216 160.76C36.7016 161.133 37.6216 161.32 38.5816 161.32C39.4082 161.32 40.1816 161.147 40.9016 160.8C41.6482 160.48 42.3016 160 42.8616 159.36C43.3949 158.747 43.8216 158 44.1416 157.12C44.4616 156.267 44.6216 155.32 44.6216 154.28V151.48C44.6216 151.213 44.6216 150.92 44.6216 150.6C44.6482 150.28 44.6616 149.947 44.6616 149.6C44.4749 150.107 44.1816 150.573 43.7816 151C43.4082 151.427 42.9682 151.8 42.4616 152.12C41.9016 152.493 41.2749 152.787 40.5816 153C39.8882 153.187 39.1549 153.28 38.3816 153.28C37.2616 153.28 36.2216 153.08 35.2616 152.68C34.3282 152.253 33.5016 151.68 32.7816 150.96C32.0616 150.267 31.5016 149.453 31.1016 148.52C30.7016 147.587 30.5016 146.573 30.5016 145.48C30.5016 144.44 30.7016 143.44 31.1016 142.48C31.5016 141.52 32.0616 140.68 32.7816 139.96C33.5016 139.267 34.3282 138.72 35.2616 138.32C36.2216 137.893 37.2616 137.68 38.3816 137.68C39.8749 137.68 41.1949 138.053 42.3416 138.8C43.4882 139.547 44.3016 140.453 44.7816 141.52C44.7816 140.933 44.7949 140.36 44.8216 139.8C44.8482 139.213 44.8882 138.613 44.9416 138H49.2216V139.56H46.2616V154.36C46.2616 155.693 46.0616 156.88 45.6616 157.92C45.2616 158.987 44.7149 159.88 44.0216 160.6C43.3282 161.347 42.5149 161.92 41.5816 162.32C40.6749 162.747 39.6882 162.973 38.6216 163C37.3416 163 36.1816 162.787 35.1416 162.36C34.1282 161.96 33.2482 161.4 32.5016 160.68ZM38.3816 139.28C37.4749 139.28 36.6349 139.453 35.8616 139.8C35.0882 140.12 34.4349 140.573 33.9016 141.16C33.3416 141.72 32.9016 142.373 32.5816 143.12C32.2882 143.84 32.1416 144.627 32.1416 145.48C32.1416 146.36 32.3016 147.187 32.6216 147.96C32.9682 148.707 33.4216 149.36 33.9816 149.92C34.5416 150.48 35.1949 150.92 35.9416 151.24C36.6882 151.533 37.5016 151.68 38.3816 151.68C39.2616 151.68 40.0749 151.52 40.8216 151.2C41.5949 150.853 42.2616 150.4 42.8216 149.84C43.3816 149.307 43.8216 148.667 44.1416 147.92C44.4616 147.173 44.6216 146.36 44.6216 145.48C44.6216 144.6 44.4482 143.773 44.1016 143C43.7549 142.227 43.2882 141.547 42.7016 140.96C42.1416 140.427 41.4882 140.013 40.7416 139.72C39.9949 139.427 39.2082 139.28 38.3816 139.28ZM59.745 153H52.025V151.44H55.105V139.56H52.025V138H56.745V151.44H59.745V153ZM57.265 132.68C57.265 133.053 57.1317 133.373 56.865 133.64C56.5983 133.88 56.2917 134 55.945 134C55.625 134 55.3317 133.88 55.065 133.64C54.7983 133.373 54.665 133.053 54.665 132.68C54.665 132.307 54.7983 132 55.065 131.76C55.3317 131.493 55.625 131.36 55.945 131.36C56.2917 131.36 56.5983 131.493 56.865 131.76C57.1317 132 57.265 132.307 57.265 132.68ZM70.2528 153H62.5328V151.44H65.6528V139.56H62.7728V138H66.9728L67.0128 139.44C67.0395 139.893 67.0661 140.307 67.0928 140.68C67.1195 141.027 67.1461 141.427 67.1728 141.88C67.7061 140.627 68.5595 139.613 69.7328 138.84C70.9061 138.067 72.2395 137.68 73.7328 137.68C75.1995 137.68 76.3595 138.093 77.2128 138.92C78.0661 139.747 78.5195 140.827 78.5728 142.16V151.44H81.5328V153H73.8128V151.44H76.9328V142.6C76.8795 141.72 76.5595 140.973 75.9728 140.36C75.4128 139.72 74.5728 139.373 73.4528 139.32C72.6261 139.32 71.8395 139.453 71.0928 139.72C70.3461 139.987 69.7061 140.36 69.1728 140.84C68.5861 141.347 68.1195 141.933 67.7728 142.6C67.4528 143.267 67.2928 144 67.2928 144.8V151.44H70.2528V153ZM104.722 153H99.8019V139.6H96.3219V138H99.8019V128.24H101.442V138H106.082V139.6H101.442V151.44H104.722V153ZM122.42 151C121.7 151.72 120.847 152.28 119.86 152.68C118.9 153.08 117.873 153.28 116.78 153.28C115.66 153.28 114.62 153.08 113.66 152.68C112.727 152.28 111.913 151.72 111.22 151C110.5 150.307 109.94 149.493 109.54 148.56C109.14 147.6 108.94 146.573 108.94 145.48C108.94 144.413 109.14 143.4 109.54 142.44C109.94 141.48 110.5 140.64 111.22 139.92C111.913 139.227 112.74 138.68 113.7 138.28C114.66 137.853 115.687 137.64 116.78 137.64C117.873 137.64 118.9 137.853 119.86 138.28C120.847 138.68 121.7 139.227 122.42 139.92C123.113 140.64 123.66 141.48 124.06 142.44C124.487 143.4 124.7 144.413 124.7 145.48C124.7 146.573 124.487 147.587 124.06 148.52C123.66 149.453 123.113 150.28 122.42 151ZM112.38 149.84C112.94 150.427 113.593 150.88 114.34 151.2C115.087 151.52 115.887 151.68 116.74 151.68C117.593 151.68 118.393 151.52 119.14 151.2C119.913 150.88 120.58 150.427 121.14 149.84C121.727 149.307 122.18 148.667 122.5 147.92C122.82 147.173 122.98 146.36 122.98 145.48C122.98 144.653 122.82 143.867 122.5 143.12C122.18 142.347 121.727 141.667 121.14 141.08C120.58 140.52 119.913 140.08 119.14 139.76C118.393 139.44 117.593 139.28 116.74 139.28C115.887 139.28 115.087 139.44 114.34 139.76C113.593 140.08 112.94 140.52 112.38 141.08C111.82 141.667 111.38 142.333 111.06 143.08C110.74 143.827 110.58 144.627 110.58 145.48C110.58 146.36 110.74 147.173 111.06 147.92C111.38 148.667 111.82 149.307 112.38 149.84ZM148.646 151.72C148.246 152.2 147.726 152.587 147.086 152.88C146.473 153.173 145.713 153.32 144.806 153.32C143.953 153.32 143.113 153.213 142.286 153C141.486 152.813 140.779 152.427 140.166 151.84V148.92H141.646V150.96C142.153 151.28 142.673 151.493 143.206 151.6C143.739 151.68 144.299 151.72 144.886 151.72C145.286 151.72 145.673 151.667 146.046 151.56C146.419 151.427 146.766 151.24 147.086 151C147.379 150.76 147.606 150.48 147.766 150.16C147.953 149.813 148.046 149.4 148.046 148.92C148.046 148.227 147.873 147.693 147.526 147.32C147.179 146.947 146.726 146.653 146.166 146.44C145.633 146.2 145.046 145.987 144.406 145.8C143.766 145.613 143.166 145.387 142.606 145.12C142.046 144.853 141.579 144.48 141.206 144C140.859 143.493 140.686 142.8 140.686 141.92C140.686 141.2 140.806 140.587 141.046 140.08C141.313 139.573 141.659 139.147 142.086 138.8C142.513 138.453 143.006 138.2 143.566 138.04C144.126 137.853 144.646 137.76 145.126 137.76C145.473 137.76 145.806 137.787 146.126 137.84C146.446 137.867 146.819 137.947 147.246 138.08C147.593 138.213 147.926 138.373 148.246 138.56C148.566 138.72 148.859 138.92 149.126 139.16V142.08H147.606V140C147.233 139.787 146.846 139.627 146.446 139.52C146.046 139.413 145.619 139.36 145.166 139.36C144.819 139.36 144.459 139.413 144.086 139.52C143.739 139.6 143.433 139.733 143.166 139.92C142.926 140.133 142.726 140.4 142.566 140.72C142.406 141.04 142.326 141.427 142.326 141.88C142.326 142.467 142.513 142.933 142.886 143.28C143.286 143.6 143.753 143.867 144.286 144.08C144.846 144.32 145.433 144.547 146.046 144.76C146.686 144.947 147.286 145.2 147.846 145.52C148.379 145.84 148.819 146.253 149.166 146.76C149.539 147.267 149.726 147.947 149.726 148.8C149.726 149.28 149.633 149.787 149.446 150.32C149.286 150.827 149.019 151.293 148.646 151.72ZM171.097 153H166.657V151.36C166.657 151.04 166.657 150.747 166.657 150.48C166.657 150.187 166.657 149.867 166.657 149.52C166.47 150 166.177 150.467 165.777 150.92C165.403 151.347 164.95 151.733 164.417 152.08C163.857 152.453 163.217 152.747 162.497 152.96C161.803 153.173 161.057 153.28 160.257 153.28C159.137 153.28 158.097 153.08 157.137 152.68C156.203 152.28 155.377 151.72 154.657 151C153.937 150.28 153.377 149.453 152.977 148.52C152.577 147.587 152.377 146.573 152.377 145.48C152.377 144.44 152.577 143.44 152.977 142.48C153.377 141.52 153.937 140.68 154.657 139.96C155.377 139.267 156.203 138.72 157.137 138.32C158.097 137.893 159.137 137.68 160.257 137.68C161.83 137.68 163.177 138.067 164.297 138.84C165.417 139.587 166.203 140.48 166.657 141.52C166.657 140.96 166.67 140.387 166.697 139.8C166.723 139.187 166.763 138.587 166.817 138H168.137V151.44H171.097V153ZM160.257 139.28C159.35 139.28 158.51 139.44 157.737 139.76C156.963 140.08 156.31 140.533 155.777 141.12C155.217 141.68 154.777 142.333 154.457 143.08C154.163 143.827 154.017 144.627 154.017 145.48C154.017 146.387 154.19 147.227 154.537 148C154.883 148.773 155.363 149.44 155.977 150C156.537 150.533 157.177 150.947 157.897 151.24C158.617 151.533 159.403 151.68 160.257 151.68C161.11 151.68 161.91 151.533 162.657 151.24C163.403 150.92 164.057 150.48 164.617 149.92C165.203 149.36 165.657 148.707 165.977 147.96C166.323 147.187 166.497 146.36 166.497 145.48C166.497 144.6 166.323 143.787 165.977 143.04C165.657 142.267 165.217 141.6 164.657 141.04C164.07 140.48 163.403 140.053 162.657 139.76C161.91 139.44 161.11 139.28 160.257 139.28ZM191.7 139.56C190.473 141.987 189.247 144.387 188.02 146.76C186.793 149.133 185.567 151.52 184.34 153.92C183.113 151.52 181.887 149.133 180.66 146.76C179.433 144.387 178.207 141.987 176.98 139.56H173.9V138H181.3V139.56H178.66C179.647 141.453 180.62 143.347 181.58 145.24C182.54 147.133 183.46 149.027 184.34 150.92C185.14 149.133 186.033 147.28 187.02 145.36C188.007 143.44 188.993 141.507 189.98 139.56H187.62V138H194.62V139.56H191.7ZM205.256 139.28C204.242 139.28 203.309 139.493 202.456 139.92C201.629 140.347 200.936 140.92 200.376 141.64C199.842 142.333 199.469 143.12 199.256 144C199.042 144.853 199.029 145.733 199.216 146.64C201.029 145.92 202.829 145.213 204.616 144.52C206.429 143.8 208.242 143.08 210.056 142.36C209.576 141.453 208.909 140.72 208.056 140.16C207.229 139.573 206.296 139.28 205.256 139.28ZM210.496 151.2C209.802 151.84 209.016 152.347 208.136 152.72C207.256 153.093 206.296 153.28 205.256 153.28C204.162 153.28 203.136 153.08 202.176 152.68C201.242 152.28 200.416 151.72 199.696 151C198.976 150.28 198.416 149.453 198.016 148.52C197.616 147.587 197.416 146.573 197.416 145.48C197.416 144.413 197.616 143.4 198.016 142.44C198.416 141.48 198.976 140.653 199.696 139.96C200.416 139.267 201.242 138.72 202.176 138.32C203.136 137.893 204.162 137.68 205.256 137.68C206.082 137.68 206.869 137.827 207.616 138.12C208.362 138.387 209.029 138.787 209.616 139.32C210.176 139.8 210.669 140.387 211.096 141.08C211.522 141.747 211.869 142.48 212.136 143.28C210.056 144.107 207.976 144.92 205.896 145.72C203.842 146.52 201.776 147.347 199.696 148.2C200.176 149.24 200.909 150.08 201.896 150.72C202.882 151.36 204.002 151.68 205.256 151.68C206.082 151.68 206.856 151.533 207.576 151.24C208.296 150.947 208.936 150.533 209.496 150L210.496 151.2ZM235.464 153H230.544V139.6H227.064V138H230.544V128.24H232.184V138H236.824V139.6H232.184V151.44H235.464V153ZM247.362 153H239.642V151.44H242.762V139.56H239.882V138H244.082L244.202 140.12C244.229 140.573 244.242 140.867 244.242 141C244.242 141.133 244.256 141.427 244.282 141.88C244.576 141.213 244.949 140.627 245.402 140.12C245.882 139.587 246.416 139.147 247.002 138.8C247.562 138.453 248.136 138.187 248.722 138C249.336 137.813 249.949 137.707 250.562 137.68L250.482 139.32C249.682 139.32 248.922 139.453 248.202 139.72C247.509 139.96 246.896 140.307 246.362 140.76C245.749 141.213 245.269 141.8 244.922 142.52C244.576 143.213 244.402 143.973 244.402 144.8V151.44H247.362V153ZM261.073 153H253.353V151.44H256.433V139.56H253.353V138H258.073V151.44H261.073V153ZM258.593 132.68C258.593 133.053 258.46 133.373 258.193 133.64C257.926 133.88 257.62 134 257.273 134C256.953 134 256.66 133.88 256.393 133.64C256.126 133.373 255.993 133.053 255.993 132.68C255.993 132.307 256.126 132 256.393 131.76C256.66 131.493 256.953 131.36 257.273 131.36C257.62 131.36 257.926 131.493 258.193 131.76C258.46 132 258.593 132.307 258.593 132.68ZM264.181 163V161.44H266.861V139.56H263.861V138H268.181C268.181 138.613 268.194 139.227 268.221 139.84C268.274 140.427 268.301 141.013 268.301 141.6C268.754 140.56 269.541 139.653 270.661 138.88C271.781 138.107 273.141 137.72 274.741 137.72C275.808 137.72 276.821 137.92 277.781 138.32C278.741 138.72 279.581 139.28 280.301 140C281.021 140.72 281.581 141.56 281.981 142.52C282.381 143.453 282.581 144.453 282.581 145.52C282.581 146.587 282.381 147.6 281.981 148.56C281.581 149.52 281.021 150.347 280.301 151.04C279.581 151.733 278.741 152.293 277.781 152.72C276.821 153.12 275.808 153.32 274.741 153.32C273.941 153.32 273.194 153.213 272.501 153C271.808 152.813 271.194 152.533 270.661 152.16C270.101 151.813 269.634 151.44 269.261 151.04C268.914 150.613 268.648 150.16 268.461 149.68C268.461 149.947 268.461 150.213 268.461 150.48C268.488 150.72 268.501 150.96 268.501 151.2V161.44H271.901V163H264.181ZM274.741 139.32C273.834 139.32 272.994 139.48 272.221 139.8C271.474 140.12 270.821 140.56 270.261 141.12C269.701 141.68 269.261 142.347 268.941 143.12C268.648 143.867 268.501 144.667 268.501 145.52C268.501 146.4 268.661 147.227 268.981 148C269.301 148.747 269.754 149.413 270.341 150C270.901 150.533 271.554 150.96 272.301 151.28C273.048 151.573 273.861 151.72 274.741 151.72C275.568 151.72 276.354 151.573 277.101 151.28C277.848 150.96 278.501 150.533 279.061 150C279.648 149.44 280.101 148.773 280.421 148C280.768 147.227 280.941 146.4 280.941 145.52C280.941 144.613 280.768 143.773 280.421 143C280.101 142.227 279.648 141.56 279.061 141C278.501 140.493 277.848 140.093 277.101 139.8C276.354 139.48 275.568 139.32 274.741 139.32ZM294.544 151.72C294.144 152.2 293.624 152.587 292.984 152.88C292.371 153.173 291.611 153.32 290.704 153.32C289.851 153.32 289.011 153.213 288.184 153C287.384 152.813 286.678 152.427 286.064 151.84V148.92H287.544V150.96C288.051 151.28 288.571 151.493 289.104 151.6C289.638 151.68 290.198 151.72 290.784 151.72C291.184 151.72 291.571 151.667 291.944 151.56C292.318 151.427 292.664 151.24 292.984 151C293.278 150.76 293.504 150.48 293.664 150.16C293.851 149.813 293.944 149.4 293.944 148.92C293.944 148.227 293.771 147.693 293.424 147.32C293.078 146.947 292.624 146.653 292.064 146.44C291.531 146.2 290.944 145.987 290.304 145.8C289.664 145.613 289.064 145.387 288.504 145.12C287.944 144.853 287.478 144.48 287.104 144C286.758 143.493 286.584 142.8 286.584 141.92C286.584 141.2 286.704 140.587 286.944 140.08C287.211 139.573 287.558 139.147 287.984 138.8C288.411 138.453 288.904 138.2 289.464 138.04C290.024 137.853 290.544 137.76 291.024 137.76C291.371 137.76 291.704 137.787 292.024 137.84C292.344 137.867 292.718 137.947 293.144 138.08C293.491 138.213 293.824 138.373 294.144 138.56C294.464 138.72 294.758 138.92 295.024 139.16V142.08H293.504V140C293.131 139.787 292.744 139.627 292.344 139.52C291.944 139.413 291.518 139.36 291.064 139.36C290.718 139.36 290.358 139.413 289.984 139.52C289.638 139.6 289.331 139.733 289.064 139.92C288.824 140.133 288.624 140.4 288.464 140.72C288.304 141.04 288.224 141.427 288.224 141.88C288.224 142.467 288.411 142.933 288.784 143.28C289.184 143.6 289.651 143.867 290.184 144.08C290.744 144.32 291.331 144.547 291.944 144.76C292.584 144.947 293.184 145.2 293.744 145.52C294.278 145.84 294.718 146.253 295.064 146.76C295.438 147.267 295.624 147.947 295.624 148.8C295.624 149.28 295.531 149.787 295.344 150.32C295.184 150.827 294.918 151.293 294.544 151.72ZM302.155 150.8C302.155 151.173 302.022 151.493 301.755 151.76C301.488 152 301.195 152.12 300.875 152.12C300.555 152.12 300.262 152 299.995 151.76C299.728 151.493 299.595 151.173 299.595 150.8C299.595 150.427 299.728 150.12 299.995 149.88C300.262 149.64 300.555 149.52 300.875 149.52C301.195 149.52 301.488 149.64 301.755 149.88C302.022 150.12 302.155 150.427 302.155 150.8ZM301.675 146.36H300.035V123H301.675V146.36Z" fill="#29ABE1"/>
<path d="M326.383 130C351.802 133.385 382.395 102.116 366.383 78.5001C363.716 67.1668 351.983 45.2001 326.383 48.0001C294.383 51.5001 288.383 79 291.883 92.5C295.383 106 334.751 125 349.883 99.5C365.015 74 368.883 33 349.883 1M349.883 1L340.883 25M349.883 1L382.383 7" stroke="#29ABE1"/>
</svg>
