<svg width="1258" height="246" viewBox="0 0 1258 246" fill="none" xmlns="http://www.w3.org/2000/svg">
<path d="M1039.83 210.089H1052.9L1058.75 218.477H1038.66L1039.83 210.089Z" fill="#FF921E"/>
<path d="M1058.75 222.672H1038.66V218.477H1058.75V222.672Z" fill="#E6E6E6"/>
<path d="M991.24 210.878L1004.27 212.279L1009.72 221.274L989.692 219.121L991.24 210.878Z" fill="#FF921E"/>
<path d="M1009.53 225.458L989.502 223.305L989.692 219.121L1009.72 221.274L1009.53 225.458Z" fill="#E6E6E6"/>
<path d="M1005.2 121.741H1027.27C1027.27 121.741 1047.28 149.316 1051.35 166.613C1056.28 187.496 1053.09 208.573 1053.09 208.573H1039.6C1039.6 208.573 1040.95 188.129 1037.65 174.619C1033.99 160.079 1019.57 146.941 1019.57 146.941C1019.57 146.941 1020.11 153.315 1015.95 173.277C1012.29 190.781 1005.01 210.51 1005.01 210.51L990.763 209.372C990.763 209.372 997.114 185.924 1000.93 167.89C1004.74 149.855 1005.2 121.741 1005.2 121.741Z" fill="#29ABE1"/>
<path d="M1062.06 62.2126L1060.8 49.1204L1063.28 48.1954L1065.02 55.0822L1068.47 42.7476L1070.85 44.3725L1069.08 52.8185L1072.9 42.8561L1074.74 44.1788L1071.96 54.5079L1074.76 48.4414L1076.61 49.7644L1074.41 57.6138L1071.44 67.7633L1062.06 62.2126Z" fill="#FF921E"/>
<path d="M975.485 43.8508L975.056 28.2307L977.62 28.0799L978.11 34.7744L978.53 27.1934L981.329 27.0011L981.493 33.9004L982.359 20.204L985.464 20.7965L984.674 33.9238L988.683 30.568L990.325 34.6058L985.565 40.9011L985.528 43.489L975.485 43.8508Z" fill="#FF921E"/>
<path d="M1009.48 74.3884C1009.48 74.3884 1012.98 79.0259 1017.74 79.0259C1022.51 79.0259 1025.69 74.3884 1025.69 74.3884C1025.69 74.3884 1036.61 89.8066 1049.06 79.815C1059.7 71.272 1060.34 63.7855 1060.34 63.7855L1071.24 70.6218C1071.24 70.6218 1066.04 93.5071 1054.92 100.341C1043.8 107.176 1032.56 104.897 1032.56 104.897C1032.56 104.897 1031.94 128.553 1044.91 149.472C1044.91 149.472 1019.45 162.821 1002.94 154.766C1002.78 154.766 1005.16 114.453 1004.52 104.689C1004.52 104.689 984.881 107.976 978.434 94.4912C968.214 73.1027 974.612 46.3494 974.612 46.3494L985.524 45.9176C985.524 45.9176 983.134 78.1254 994.742 80.3376C1002.99 81.9087 1009.48 74.3884 1009.48 74.3884Z" fill="#FAAF3A"/>
<path d="M1026.44 51.3694C1028.4 59.0229 1025.95 67.665 1020.97 70.6719C1015.99 73.6789 1010.36 69.9123 1008.41 62.2587C1006.45 54.6052 1008.9 45.9632 1013.88 42.9562C1018.86 39.9492 1024.49 43.7159 1026.44 51.3694Z" fill="#F7921E"/>
<path d="M1025.89 49.401C1025.89 49.401 1022.52 37.6021 1019 39.1261C1017.4 39.818 1007.15 45.0529 1006.2 48.3777C1005.26 51.7023 1007.93 62.4785 1007.93 62.4785L1035 45.4563L1034.68 43.7375L1025.89 49.401ZM1008.47 60.1808L1007.7 56.3187L1010.8 54.4524L1011.62 58.1229L1008.47 60.1808Z" fill="#0070BB"/>
<path d="M123 225H62.7V213.3H87.3V26.7H22.2V61.2H10.5V15H176.4V61.2H164.7V26.7H99.6V213.3H123V225ZM255.314 225H197.414V213.3H220.814V124.2H199.214V112.5H230.714L231.614 128.4C231.814 131.8 231.914 134 231.914 135C231.914 136 232.014 138.2 232.214 141.6C234.414 136.6 237.214 132.2 240.614 128.4C244.214 124.4 248.214 121.1 252.614 118.5C256.814 115.9 261.114 113.9 265.514 112.5C270.114 111.1 274.714 110.3 279.314 110.1L278.714 122.4C272.714 122.4 267.014 123.4 261.614 125.4C256.414 127.2 251.814 129.8 247.814 133.2C243.214 136.6 239.614 141 237.014 146.4C234.414 151.6 233.114 157.3 233.114 163.5V213.3H255.314V225ZM401.646 210C396.246 215.4 389.846 219.6 382.446 222.6C375.246 225.6 367.546 227.1 359.346 227.1C350.946 227.1 343.146 225.6 335.946 222.6C328.946 219.6 322.846 215.4 317.646 210C312.246 204.8 308.046 198.7 305.046 191.7C302.046 184.5 300.546 176.8 300.546 168.6C300.546 160.6 302.046 153 305.046 145.8C308.046 138.6 312.246 132.3 317.646 126.9C322.846 121.7 329.046 117.6 336.246 114.6C343.446 111.4 351.146 109.8 359.346 109.8C367.546 109.8 375.246 111.4 382.446 114.6C389.846 117.6 396.246 121.7 401.646 126.9C406.846 132.3 410.946 138.6 413.946 145.8C417.146 153 418.746 160.6 418.746 168.6C418.746 176.8 417.146 184.4 413.946 191.4C410.946 198.4 406.846 204.6 401.646 210ZM326.346 201.3C330.546 205.7 335.446 209.1 341.046 211.5C346.646 213.9 352.646 215.1 359.046 215.1C365.446 215.1 371.446 213.9 377.046 211.5C382.846 209.1 387.846 205.7 392.046 201.3C396.446 197.3 399.846 192.5 402.246 186.9C404.646 181.3 405.846 175.2 405.846 168.6C405.846 162.4 404.646 156.5 402.246 150.9C399.846 145.1 396.446 140 392.046 135.6C387.846 131.4 382.846 128.1 377.046 125.7C371.446 123.3 365.446 122.1 359.046 122.1C352.646 122.1 346.646 123.3 341.046 125.7C335.446 128.1 330.546 131.4 326.346 135.6C322.146 140 318.846 145 316.446 150.6C314.046 156.2 312.846 162.2 312.846 168.6C312.846 175.2 314.046 181.3 316.446 186.9C318.846 192.5 322.146 197.3 326.346 201.3ZM502.699 225H465.799V124.5H439.699V112.5H465.799V39.3H478.099V112.5H512.899V124.5H478.099V213.3H502.699V225ZM594.335 225H534.035V213.3H558.335V26.7H534.035V15H565.535C583.135 38 600.935 61.3 618.935 84.9C636.935 108.3 653.335 129.5 668.135 148.5C685.335 126.3 702.435 104.1 719.435 81.9C736.435 59.5 753.535 37.2 770.735 15H802.235V26.7H777.935V213.3H803.135V225H742.835V213.3H765.635V51.9C765.635 49.5 765.635 47.6 765.635 46.2C765.835 44.6 766.035 42.6 766.235 40.2C764.635 42.4 763.235 44.3 762.035 45.9C760.835 47.5 759.435 49.4 757.835 51.6L668.135 168.6L575.735 48.3C574.535 46.5 573.535 45.2 572.735 44.4C572.135 43.4 571.235 42 570.035 40.2C570.235 42 570.335 44 570.335 46.2C570.535 48.2 570.635 50.1 570.635 51.9V213.3H594.335V225ZM964.474 225H931.174V212.7C931.174 210.3 931.174 208.1 931.174 206.1C931.174 203.9 931.174 201.5 931.174 198.9C929.774 202.5 927.574 206 924.574 209.4C921.774 212.6 918.374 215.5 914.374 218.1C910.174 220.9 905.374 223.1 899.974 224.7C894.774 226.3 889.174 227.1 883.174 227.1C874.774 227.1 866.974 225.6 859.774 222.6C852.774 219.6 846.574 215.4 841.174 210C835.774 204.6 831.574 198.4 828.574 191.4C825.574 184.4 824.074 176.8 824.074 168.6C824.074 160.8 825.574 153.3 828.574 146.1C831.574 138.9 835.774 132.6 841.174 127.2C846.574 122 852.774 117.9 859.774 114.9C866.974 111.7 874.774 110.1 883.174 110.1C894.974 110.1 905.074 113 913.474 118.8C921.874 124.4 927.774 131.1 931.174 138.9C931.174 134.7 931.274 130.4 931.474 126C931.674 121.4 931.974 116.9 932.374 112.5H942.274V213.3H964.474V225ZM883.174 122.1C876.374 122.1 870.074 123.3 864.274 125.7C858.474 128.1 853.574 131.5 849.574 135.9C845.374 140.1 842.074 145 839.674 150.6C837.474 156.2 836.374 162.2 836.374 168.6C836.374 175.4 837.674 181.7 840.274 187.5C842.874 193.3 846.474 198.3 851.074 202.5C855.274 206.5 860.074 209.6 865.474 211.8C870.874 214 876.774 215.1 883.174 215.1C889.574 215.1 895.574 214 901.174 211.8C906.774 209.4 911.674 206.1 915.874 201.9C920.274 197.7 923.674 192.8 926.074 187.2C928.674 181.4 929.974 175.2 929.974 168.6C929.974 162 928.674 155.9 926.074 150.3C923.674 144.5 920.374 139.5 916.174 135.3C911.774 131.1 906.774 127.9 901.174 125.7C895.574 123.3 889.574 122.1 883.174 122.1ZM1134.24 122.1C1126.64 122.1 1119.64 123.7 1113.24 126.9C1107.04 130.1 1101.84 134.4 1097.64 139.8C1093.64 145 1090.84 150.9 1089.24 157.5C1087.64 163.9 1087.54 170.5 1088.94 177.3C1102.54 171.9 1116.04 166.6 1129.44 161.4C1143.04 156 1156.64 150.6 1170.24 145.2C1166.64 138.4 1161.64 132.9 1155.24 128.7C1149.04 124.3 1142.04 122.1 1134.24 122.1ZM1173.54 211.5C1168.34 216.3 1162.44 220.1 1155.84 222.9C1149.24 225.7 1142.04 227.1 1134.24 227.1C1126.04 227.1 1118.34 225.6 1111.14 222.6C1104.14 219.6 1097.94 215.4 1092.54 210C1087.14 204.6 1082.94 198.4 1079.94 191.4C1076.94 184.4 1075.44 176.8 1075.44 168.6C1075.44 160.6 1076.94 153 1079.94 145.8C1082.94 138.6 1087.14 132.4 1092.54 127.2C1097.94 122 1104.14 117.9 1111.14 114.9C1118.34 111.7 1126.04 110.1 1134.24 110.1C1140.44 110.1 1146.34 111.2 1151.94 113.4C1157.54 115.4 1162.54 118.4 1166.94 122.4C1171.14 126 1174.84 130.4 1178.04 135.6C1181.24 140.6 1183.84 146.1 1185.84 152.1C1170.24 158.3 1154.64 164.4 1139.04 170.4C1123.64 176.4 1108.14 182.6 1092.54 189C1096.14 196.8 1101.64 203.1 1109.04 207.9C1116.44 212.7 1124.84 215.1 1134.24 215.1C1140.44 215.1 1146.24 214 1151.64 211.8C1157.04 209.6 1161.84 206.5 1166.04 202.5L1173.54 211.5ZM1232.76 215.1C1232.76 217.9 1231.76 220.3 1229.76 222.3C1227.76 224.1 1225.56 225 1223.16 225C1220.56 225 1218.26 224.1 1216.26 222.3C1214.26 220.3 1213.26 217.9 1213.26 215.1C1213.26 212.5 1214.26 210.3 1216.26 208.5C1218.26 206.5 1220.56 205.5 1223.16 205.5C1225.56 205.5 1227.76 206.5 1229.76 208.5C1231.76 210.3 1232.76 212.5 1232.76 215.1Z" fill="black"/>
</svg>
